<?xml version="1.0" standalone="no"?>
<!DOCTYPE svg PUBLIC "-//W3C//DTD SVG 20010904//EN"
 "http://www.w3.org/TR/2001/REC-SVG-20010904/DTD/svg10.dtd">
<svg version="1.0" xmlns="http://www.w3.org/2000/svg"
 width="709.000000pt" height="709.000000pt" viewBox="0 0 709.000000 709.000000"
 preserveAspectRatio="xMidYMid meet">

<g transform="translate(0.000000,709.000000) scale(0.100000,-0.100000)"
fill="#000000" stroke="none">
<path d="M3300 7079 c-710 -50 -1357 -300 -1942 -749 -162 -124 -474 -436
-598 -598 -396 -516 -630 -1061 -719 -1677 -112 -769 32 -1558 409 -2230 542
-968 1494 -1625 2585 -1785 768 -111 1558 34 2230 410 812 454 1424 1218 1678
2095 240 828 179 1687 -178 2476 -171 376 -404 709 -720 1024 -256 256 -481
428 -781 596 -590 330 -1288 486 -1964 438z m640 -204 c752 -87 1434 -418
1975 -960 545 -544 870 -1216 961 -1985 12 -99 18 -220 18 -385 0 -270 -16
-439 -65 -676 -106 -524 -335 -1009 -675 -1434 -113 -141 -358 -386 -499 -499
-502 -403 -1084 -646 -1725 -722 -198 -24 -572 -24 -770 0 -641 76 -1223 319
-1725 722 -141 113 -386 358 -499 499 -403 502 -646 1084 -722 1725 -24 198
-24 572 0 770 91 769 416 1441 961 1985 439 440 966 739 1557 884 196 49 375
75 633 95 98 8 442 -4 575 -19z"/>
<path d="M3335 6844 c-694 -56 -1290 -285 -1834 -706 -137 -107 -442 -412
-549 -549 -383 -496 -607 -1031 -689 -1654 -12 -94 -17 -202 -17 -390 0 -286
12 -412 64 -665 147 -719 542 -1381 1110 -1859 498 -418 1074 -670 1735 -757
180 -24 599 -24 780 -1 767 101 1438 434 1966 973 517 530 827 1173 926 1919
23 181 23 599 0 780 -102 773 -435 1442 -984 1976 -521 507 -1177 822 -1903
914 -120 15 -501 27 -605 19z m33 -123 c6 -40 -39 -56 -58 -20 -9 15 -8 24 1
35 18 22 53 13 57 -15z m172 -133 l46 -77 48 80 c39 63 53 79 72 79 13 0 24
-4 24 -9 0 -6 -27 -53 -60 -105 l-60 -95 0 -96 c0 -95 0 -95 -25 -95 -25 0
-25 0 -25 96 l0 96 -60 100 c-33 54 -60 101 -60 104 0 3 12 4 27 2 22 -2 36
-18 73 -80z m-170 48 c0 -23 15 -221 24 -323 3 -40 2 -43 -20 -43 -13 0 -24 6
-24 13 0 6 -7 91 -15 187 -8 96 -15 178 -15 183 0 4 11 7 25 7 20 0 25 -5 25
-24z m555 9 c101 -10 115 -15 115 -36 0 -22 -32 -24 -130 -10 -30 5 -56 8 -57
7 0 0 -4 -26 -8 -57 l-7 -56 89 -9 c78 -8 88 -11 88 -29 0 -23 -26 -25 -126
-12 l-56 7 -7 -66 c-4 -35 -4 -69 -1 -73 2 -5 43 -12 90 -16 82 -7 85 -8 79
-28 -4 -12 -7 -23 -8 -24 -2 -2 -51 3 -109 9 -126 14 -116 -13 -87 228 11 91
20 169 20 173 0 5 12 6 28 3 15 -3 54 -8 87 -11z m-703 -34 c28 -25 33 -36 33
-74 0 -54 -31 -93 -81 -103 l-32 -6 79 -75 c43 -42 79 -80 79 -84 0 -5 -12 -9
-27 -9 -21 0 -47 19 -110 82 -45 45 -85 79 -89 76 -3 -4 -1 -38 5 -77 16 -99
15 -111 -9 -111 -11 0 -20 1 -21 3 -6 23 -55 383 -53 386 7 8 86 18 141 20 45
1 57 -3 85 -28z m950 -6 c120 -25 118 -24 118 -47 0 -19 -4 -20 -45 -15 -40 6
-45 4 -50 -16 -3 -12 -19 -87 -36 -167 -16 -79 -32 -146 -34 -148 -2 -2 -13
-1 -24 3 -15 5 -20 12 -16 28 29 122 64 310 60 318 -4 5 -16 9 -28 9 -31 0
-51 15 -44 34 8 20 8 20 99 1z m-1282 -47 c6 -24 22 -83 36 -133 28 -104 30
-154 9 -195 -29 -55 -121 -78 -184 -45 -37 19 -52 52 -94 212 -34 128 -34 133
-15 139 11 3 22 4 24 1 3 -2 21 -65 40 -138 43 -159 44 -163 84 -179 39 -16
85 1 106 42 14 26 12 39 -23 174 -32 125 -36 146 -23 154 24 16 29 12 40 -32z
m1754 -3 c10 -26 -5 -45 -35 -45 -24 0 -29 4 -29 23 0 13 3 27 7 30 12 13 51
7 57 -8z m90 -31 c9 -8 16 -18 16 -22 -1 -39 -63 -42 -68 -3 -6 37 26 52 52
25z m-180 -23 c4 -5 -16 -68 -44 -140 -27 -72 -50 -142 -50 -156 0 -36 42 -75
80 -75 62 0 65 5 144 211 32 83 40 96 57 92 10 -3 19 -10 19 -17 0 -17 -88
-244 -106 -276 -48 -80 -175 -78 -225 4 -28 46 -24 72 32 226 40 109 56 140
70 140 10 0 20 -4 23 -9z m-1966 -188 c65 -161 70 -179 55 -190 -9 -7 -19 -13
-22 -13 -3 0 -21 39 -40 86 -26 68 -37 84 -50 79 -101 -37 -151 -60 -151 -70
0 -7 14 -45 30 -86 29 -69 30 -75 13 -86 -9 -7 -20 -10 -24 -6 -14 15 -148
357 -143 365 3 4 14 8 24 8 13 0 25 -18 46 -70 15 -38 30 -70 34 -70 4 0 27 9
51 19 24 11 61 26 81 34 l37 16 -29 72 c-30 72 -29 88 5 89 6 0 43 -80 83
-177z m2337 -126 c21 -97 42 -177 45 -177 3 0 33 54 68 120 35 66 66 120 70
120 4 0 14 -5 22 -10 13 -8 8 -22 -29 -92 -114 -217 -144 -269 -151 -261 -4 4
-25 86 -46 180 -22 95 -42 173 -46 173 -3 0 -32 -48 -63 -107 -31 -60 -60
-112 -64 -116 -10 -10 -41 2 -41 16 0 20 175 337 185 334 6 -2 28 -83 50 -180z
m-2686 -23 c98 -123 122 -157 110 -165 -8 -5 -18 -9 -24 -9 -5 0 -46 45 -89
100 -44 55 -80 99 -81 98 -2 -2 1 -52 7 -113 5 -60 8 -127 6 -148 l-3 -39 -90
59 c-49 32 -107 69 -127 81 l-37 23 50 -115 c27 -63 49 -119 49 -125 0 -5 -8
-14 -17 -20 -15 -8 -23 2 -54 77 -20 48 -54 131 -77 184 -22 54 -38 100 -34
102 4 2 72 -38 151 -90 80 -51 145 -93 146 -91 1 1 -4 67 -11 147 -15 177 -16
200 -6 199 4 0 63 -70 131 -155z m3066 41 c0 -25 -4 -30 -25 -30 -16 0 -26 6
-28 18 -6 30 6 49 30 45 18 -2 23 -9 23 -33z m-56 -93 c-28 -46 -179 -274
-189 -285 -9 -10 -40 2 -40 16 0 5 47 82 105 169 96 146 107 158 125 148 l21
-11 -22 -37z m-1283 -1 c274 -47 508 -123 749 -245 272 -138 480 -291 695
-512 380 -391 615 -863 707 -1419 26 -158 26 -622 0 -780 -92 -556 -327 -1028
-707 -1419 -338 -348 -749 -588 -1210 -707 -243 -63 -337 -74 -655 -74 -253 0
-306 3 -415 22 -282 49 -512 125 -755 247 -272 138 -480 291 -695 512 -380
391 -615 863 -707 1419 -26 158 -26 622 0 780 92 557 326 1027 707 1419 215
221 423 374 695 512 245 123 487 202 750 244 175 28 176 28 460 25 209 -2 284
-7 381 -24z m1368 -159 c-19 -70 -37 -138 -41 -151 -7 -28 -18 -32 141 53 126
67 153 74 163 40 3 -11 -366 -208 -374 -200 -5 5 93 389 104 409 3 5 13 1 23
-8 17 -15 16 -22 -16 -143z m-3535 -17 c93 -114 110 -155 92 -214 -15 -51 -59
-83 -120 -89 -59 -5 -79 10 -197 155 -80 98 -85 106 -69 122 16 15 20 13 58
-33 154 -183 162 -191 200 -194 70 -6 111 69 70 128 -9 14 -53 69 -97 124 -76
93 -79 99 -61 112 23 17 15 24 124 -111z m3948 -177 c75 -75 81 -86 61 -106
-10 -10 -26 2 -78 53 l-66 65 -39 -40 -39 -40 64 -65 c61 -61 63 -66 47 -82
-16 -16 -21 -14 -82 47 l-65 64 -50 -49 -50 -49 65 -66 c51 -52 63 -68 53 -78
-7 -7 -17 -12 -23 -12 -13 0 -155 142 -155 155 0 13 262 275 275 275 5 0 42
-33 82 -72z m-4277 -3 c0 -21 -5 -25 -30 -25 -98 0 -184 -112 -159 -205 20
-70 89 -125 159 -125 76 0 152 73 166 157 4 29 12 43 25 46 17 4 19 -1 19 -40
0 -145 -165 -254 -295 -194 -82 38 -125 103 -125 193 0 115 98 216 213 218 22
0 27 -4 27 -25z m4501 -254 c38 -59 38 -101 0 -143 -25 -28 -36 -33 -75 -33
-35 0 -51 6 -73 28 l-29 27 -24 -105 c-12 -58 -26 -108 -30 -110 -4 -2 -13 7
-20 20 -11 20 -9 39 10 122 12 54 25 104 27 111 10 25 -19 11 -78 -38 -33 -27
-64 -50 -68 -50 -10 0 -35 29 -30 34 2 2 72 58 154 125 l150 122 29 -33 c15
-18 41 -53 57 -77z m165 -215 c27 -27 34 -42 34 -72 0 -48 -12 -67 -36 -62
-15 3 -18 11 -16 42 6 65 -51 102 -82 54 -8 -13 -17 -54 -21 -93 -9 -91 -29
-134 -73 -152 -91 -38 -179 47 -152 146 8 30 16 41 30 41 26 0 32 -14 20 -46
-15 -37 -5 -70 25 -90 55 -36 89 5 104 125 11 86 26 115 66 132 40 16 67 9
101 -25z m-5086 -1 c0 -19 -5 -25 -22 -25 -45 0 -76 -58 -46 -88 17 -17 46
-15 113 8 86 30 140 27 176 -9 24 -24 29 -38 29 -76 0 -40 -5 -52 -34 -81 -29
-29 -41 -34 -80 -34 -38 0 -46 3 -46 19 0 13 10 20 36 24 47 8 74 33 74 68 0
61 -46 72 -152 39 -87 -27 -114 -26 -149 9 -63 63 -17 169 74 171 22 0 27 -4
27 -25z m5286 -167 c7 -22 -19 -52 -40 -45 -17 6 -29 34 -23 51 10 24 54 21
63 -6z m-81 -39 c4 -11 5 -22 3 -24 -23 -21 -333 -184 -338 -178 -24 24 -5 39
150 128 91 52 168 94 172 94 4 1 10 -8 13 -20z m64 -116 c13 -27 34 -72 47
-100 23 -52 23 -53 4 -63 -17 -9 -22 -5 -40 29 l-20 40 -156 -76 c-156 -75
-173 -78 -174 -38 0 6 70 43 155 84 l154 73 -19 39 c-19 36 -19 39 -2 48 25
15 26 15 51 -36z m-5232 -13 l123 0 -12 -25 c-10 -23 -16 -25 -82 -25 l-72 0
-32 -65 c-18 -36 -32 -69 -32 -74 0 -5 18 -32 40 -60 34 -43 39 -54 30 -71 -6
-11 -14 -20 -18 -19 -11 1 -262 326 -262 340 0 9 24 10 98 6 53 -4 152 -7 219
-7z m-232 -304 c83 -79 146 -148 142 -152 -7 -8 -417 -35 -425 -28 -2 1 1 11
7 22 11 22 66 31 191 33 147 3 147 -1 21 117 -61 57 -111 111 -111 121 0 18 8
31 19 31 3 -1 74 -65 156 -144z m5603 -3 c39 -106 40 -122 6 -123 -6 0 -26 38
-43 84 l-32 85 -46 -17 c-25 -9 -47 -21 -49 -27 -2 -5 9 -44 25 -85 16 -41 27
-78 24 -82 -2 -5 -13 -8 -23 -8 -14 0 -25 18 -45 73 -15 39 -31 75 -34 80 -8
8 -131 -34 -131 -45 0 -4 14 -42 31 -84 24 -61 27 -79 17 -85 -26 -17 -34 -7
-72 94 -30 83 -35 104 -24 111 13 8 335 133 349 135 4 1 25 -47 47 -106z m64
-210 c33 -29 40 -81 18 -130 -17 -39 -22 -43 -40 -33 -24 13 -24 13 -4 51 17
34 11 64 -17 79 -32 18 -56 -5 -99 -95 -53 -110 -98 -137 -170 -100 -63 33
-80 112 -37 176 24 36 36 40 52 15 6 -10 4 -20 -7 -33 -31 -34 -33 -69 -4 -97
48 -49 83 -27 134 84 30 68 53 94 87 103 28 7 67 -2 87 -20z m-5994 -45 c2
-19 -2 -28 -18 -33 -37 -12 -64 27 -38 53 21 21 53 10 56 -20z m232 -46 c155
-43 175 -50 172 -68 -2 -10 -5 -20 -7 -22 -2 -2 -86 19 -186 46 -163 43 -184
51 -187 70 -5 30 5 29 208 -26z m-171 -110 c8 -15 4 -23 -19 -41 -47 -34 -36
-91 16 -91 12 0 49 23 81 50 71 61 118 77 167 56 57 -24 82 -98 53 -156 -13
-26 -71 -70 -92 -70 -7 0 -15 9 -18 19 -3 14 5 26 32 43 19 12 37 31 39 41 7
34 -8 68 -34 77 -30 12 -50 3 -114 -50 -60 -49 -82 -60 -123 -60 -90 0 -119
121 -43 182 27 23 43 22 55 0z m6088 -38 c8 -22 -10 -49 -32 -49 -10 0 -22 7
-28 16 -15 24 -1 49 28 49 15 0 28 -7 32 -16z m-87 -28 c0 -27 8 -25 -233 -71
-75 -14 -142 -23 -148 -20 -5 4 -9 14 -7 23 3 13 43 25 188 54 102 20 188 37
193 37 4 1 7 -10 7 -23z m-5841 -861 c29 -28 32 -91 7 -130 -20 -30 -37 -32
-60 -6 -16 18 -17 21 -1 45 9 14 14 30 10 36 -12 20 -34 10 -56 -27 -13 -20
-36 -52 -52 -70 -25 -29 -35 -33 -76 -33 -37 0 -52 5 -70 24 -45 48 -34 148
19 176 16 8 22 6 36 -15 16 -25 15 -35 -8 -66 -15 -21 -4 -49 21 -49 12 0 30
18 50 48 66 103 121 124 180 67z m5696 -10 c121 -21 151 -32 175 -62 37 -47
22 -129 -30 -170 -21 -17 -77 -16 -202 4 -108 17 -108 17 -108 45 0 16 7 31
15 34 9 4 67 -2 130 -12 106 -16 117 -16 132 -2 10 11 13 25 9 41 -7 28 -27
34 -184 58 -64 10 -82 16 -77 27 3 7 5 22 5 33 0 24 16 24 135 4z m-5575 -170
c20 -25 8 -50 -25 -50 -24 0 -31 5 -33 24 -6 37 34 55 58 26z m-79 -17 c2 -36
6 -61 13 -94 7 -31 5 -33 -94 -96 l-102 -65 61 -7 c34 -3 88 -9 120 -12 56 -6
60 -8 66 -36 4 -16 5 -32 2 -34 -7 -7 -340 26 -348 35 -4 3 -9 18 -13 32 -5
25 3 32 134 119 77 51 138 95 136 97 -2 2 -70 -8 -151 -22 -81 -15 -148 -25
-150 -23 -1 2 -6 17 -9 34 l-7 31 98 18 c54 9 127 23 163 30 36 7 68 13 73 14
4 0 8 -9 8 -21z m5807 -87 c12 -7 11 -21 -3 -85 -9 -42 -18 -76 -19 -76 -7 0
-293 61 -308 66 -10 3 -18 15 -18 27 0 46 8 47 147 18 l131 -28 7 44 c5 36 10
43 28 43 12 0 28 -4 35 -9z m-232 -150 c55 -16 114 -36 131 -44 62 -33 69
-125 13 -182 -38 -38 -75 -37 -215 3 -55 16 -101 28 -103 27 -1 -1 16 -34 39
-74 25 -43 47 -71 57 -71 10 0 54 9 100 20 106 26 106 26 97 -7 -9 -41 -22
-49 -105 -68 l-74 -18 56 -21 c31 -12 59 -24 62 -27 10 -10 -16 -70 -28 -66
-6 3 -76 30 -156 61 -79 31 -146 58 -147 60 -4 4 18 66 23 66 3 0 21 -7 41
-15 53 -23 55 -20 21 38 l-30 52 23 70 c13 39 24 71 25 73 1 2 51 -10 111 -27
60 -17 118 -31 129 -31 39 0 59 45 30 69 -8 7 -65 27 -128 45 -118 33 -119 35
-103 84 6 17 17 16 131 -17z m-5465 -208 c4 -4 10 -19 14 -34 6 -23 -7 -37
-130 -143 -75 -65 -138 -117 -139 -115 -2 2 -8 18 -13 34 -9 26 -7 34 15 58
l26 28 -19 57 c-19 55 -21 57 -58 60 -30 3 -40 9 -47 28 -6 14 -10 30 -10 36
0 13 348 4 361 -9z m68 -198 c36 -18 55 -64 47 -110 -8 -41 -25 -52 -56 -35
-16 9 -20 18 -16 38 7 31 -6 58 -23 48 -6 -4 -20 -39 -32 -78 -27 -86 -56
-118 -109 -118 -77 0 -127 80 -96 153 16 40 30 45 60 22 15 -12 17 -19 8 -44
-8 -22 -7 -34 3 -48 21 -28 45 -6 66 62 24 78 37 101 63 113 30 15 53 14 85
-3z m5298 -91 c75 -56 96 -157 50 -239 -26 -47 -92 -85 -147 -85 -48 1 -110
31 -143 69 -67 80 -37 225 57 267 45 21 148 14 183 -12z m-5128 -213 c22 -38
41 -74 41 -79 0 -6 4 -12 8 -14 5 -1 31 -36 58 -76 l48 -74 -24 -19 c-14 -10
-28 -19 -32 -19 -3 0 -19 20 -35 45 -31 50 -32 50 -57 32 -16 -12 -15 -15 13
-55 17 -23 31 -46 31 -51 0 -5 -12 -16 -26 -26 -22 -14 -28 -15 -35 -4 -5 8
-19 29 -30 47 -24 37 -34 39 -68 13 l-24 -18 33 -48 33 -48 -24 -18 c-13 -10
-27 -19 -31 -19 -4 0 -30 34 -59 76 -48 71 -50 76 -32 89 10 8 59 42 110 76
l92 63 -17 28 -16 28 -36 -21 c-19 -12 -71 -42 -114 -67 l-79 -45 -18 22 c-11
13 -19 27 -19 32 0 4 52 39 115 77 108 65 114 70 100 88 -8 10 -15 22 -15 26
0 9 53 37 61 32 4 -2 25 -35 48 -73z m4846 -101 l22 -65 112 3 c61 2 111 0
111 -3 0 -4 -9 -19 -20 -35 -18 -25 -27 -28 -102 -35 l-83 -7 53 -31 c57 -35
61 -44 34 -77 l-19 -23 -141 93 -142 92 21 29 20 29 44 -26 44 -25 -21 64 -21
64 23 33 23 33 10 -24 c5 -13 19 -53 32 -89z m-146 -119 l24 -18 -33 -47 c-32
-44 -33 -47 -16 -64 16 -16 18 -16 37 10 11 14 27 36 37 47 l17 21 28 -22 27
-23 -36 -45 -35 -45 28 -23 28 -23 40 45 c40 45 40 45 63 26 12 -10 22 -22 22
-26 0 -9 -102 -144 -109 -144 -10 0 -261 196 -261 204 0 11 100 146 108 146 4
0 18 -9 31 -19z m-4514 -58 l18 -27 -38 -33 -38 -33 69 -1 69 0 44 -55 c49
-62 48 -53 12 -213 l-20 -84 75 74 74 74 25 -25 25 -25 -120 -120 -120 -120
-25 25 -24 25 24 109 c14 60 24 111 22 112 -2 2 -35 -25 -74 -61 l-70 -64 -24
25 -23 25 114 114 115 115 -87 0 -87 0 -26 -87 c-14 -49 -28 -96 -31 -105 -7
-25 -17 -22 -42 11 l-21 29 19 63 c11 35 20 70 20 77 0 8 -22 -4 -49 -27 l-49
-41 -21 26 c-12 15 -20 31 -19 35 4 9 251 209 259 209 4 0 15 -12 24 -27z
m4395 -147 c0 -29 -4 -34 -32 -42 -19 -6 -34 -17 -36 -28 -4 -17 3 -18 90 -11
92 7 95 7 126 -20 55 -46 41 -134 -28 -170 -31 -16 -68 -19 -86 -7 -7 4 -9 21
-7 40 4 26 9 31 24 27 28 -9 61 13 57 38 -3 21 -7 22 -96 18 -108 -4 -137 8
-147 63 -7 34 12 87 37 102 10 6 52 17 91 23 4 0 7 -14 7 -33z m-155 -133 c3
-27 8 -67 11 -90 6 -47 0 -44 124 -69 47 -10 88 -20 93 -24 4 -3 -7 -17 -25
-30 -31 -23 -32 -23 -110 -8 l-79 15 47 -48 48 -49 -24 -25 c-13 -14 -26 -25
-29 -25 -4 0 -57 54 -120 121 l-114 121 27 26 27 27 34 -40 35 -40 -6 68 c-6
62 -5 70 16 92 13 14 27 25 31 25 4 0 10 -21 14 -47z m-3815 -48 c20 -25 8
-50 -25 -50 -31 0 -43 20 -31 51 7 18 40 18 56 -1z m3558 -47 c17 -17 15 -43
-4 -59 -31 -26 -70 25 -44 56 15 18 32 19 48 3z m-3613 -18 c21 -23 27 -13
-89 -145 -123 -141 -109 -130 -140 -110 -14 10 -26 21 -26 26 0 13 213 249
225 249 7 0 20 -9 30 -20z m3763 -116 c75 -97 82 -109 82 -151 0 -38 -5 -50
-34 -79 -28 -28 -42 -34 -76 -34 -23 0 -50 4 -60 10 -10 5 -50 50 -90 100 -40
50 -75 89 -77 86 -3 -2 0 -46 6 -96 10 -82 16 -99 53 -152 42 -63 42 -62 -4
-88 -14 -9 -24 0 -57 49 -34 50 -54 67 -127 108 -48 26 -89 53 -91 58 -2 6 9
18 25 27 27 16 30 16 80 -13 28 -16 53 -29 55 -29 2 0 0 28 -4 63 -5 44 -4 64
4 69 7 3 32 22 57 42 l45 36 18 -22 c153 -187 156 -190 186 -171 33 21 23 49
-55 147 l-76 97 23 25 c12 13 25 24 28 24 3 -1 43 -48 89 -106z m-3679 42 c11
-13 8 -22 -18 -54 l-30 -39 64 15 c62 13 65 13 95 -8 17 -12 28 -25 25 -29 -4
-3 -43 -15 -88 -26 l-82 -21 -7 -49 c-3 -28 -7 -78 -7 -112 -1 -35 -4 -63 -8
-63 -5 1 -21 11 -37 24 -29 24 -29 24 -22 107 l6 84 -22 -30 c-62 -80 -62 -80
-91 -59 -15 10 -25 24 -22 31 2 6 48 68 102 136 101 130 108 134 142 93z
m3456 -1 c0 -25 -4 -30 -24 -30 -28 0 -47 25 -38 49 5 12 16 16 34 14 24 -3
28 -8 28 -33z m-3161 -209 c39 -25 57 -44 65 -69 14 -43 1 -83 -32 -98 -21
-10 -24 -16 -20 -53 4 -35 1 -47 -22 -74 -37 -45 -90 -44 -165 1 -30 18 -54
37 -52 43 4 13 166 284 170 284 2 0 27 -15 56 -34z m233 -32 c9 -24 -10 -49
-38 -49 -24 0 -36 23 -25 51 7 19 55 18 63 -2z m2593 -41 c-1 -5 -7 -37 -15
-73 -23 -105 -26 -99 82 -159 l96 -54 -37 -19 -37 -19 -75 40 -74 40 30 -59
c17 -33 30 -61 30 -64 0 -6 -60 -29 -64 -25 -6 6 -146 288 -146 294 0 2 13 11
30 20 l29 15 24 -47 24 -47 12 52 c6 29 11 59 11 66 0 7 15 20 33 29 36 18 47
20 47 10z m-2647 -24 c12 -7 23 -13 25 -14 2 -2 -143 -289 -154 -303 -4 -7
-65 29 -62 37 24 57 152 291 160 291 5 0 19 -5 31 -11z m295 -45 c5 -9 7 -25
5 -35 -8 -27 -59 -26 -68 1 -13 41 43 70 63 34z m-193 -8 c18 -13 17 -18 -33
-128 -29 -64 -52 -119 -52 -125 0 -5 16 -15 35 -22 37 -13 44 -34 22 -65 -12
-16 -17 -15 -82 15 -39 18 -71 33 -73 35 -2 1 27 70 65 153 70 154 79 165 118
137z m2334 -52 c15 -33 11 -39 -48 -60 -45 -16 -49 -19 -39 -38 6 -12 12 -22
13 -24 1 -1 23 7 49 18 26 11 51 20 55 20 3 0 12 -14 18 -31 12 -30 11 -31
-33 -50 -25 -10 -50 -19 -55 -19 -12 0 -12 -5 5 -45 l15 -34 51 21 c54 22 68
19 72 -21 3 -21 -7 -28 -80 -58 -46 -20 -84 -34 -86 -32 -6 8 -126 313 -123
314 10 7 154 63 163 64 6 1 16 -11 23 -25z m-2166 -23 c4 -5 -19 -75 -52 -157
-57 -143 -60 -149 -87 -147 -15 1 -31 6 -35 10 -4 4 20 77 54 161 59 149 62
153 86 147 15 -4 30 -10 34 -14z m104 -37 c21 -6 23 -12 25 -122 l3 -115 65
92 c62 88 66 91 95 85 16 -3 32 -8 34 -10 3 -3 -39 -337 -43 -342 -2 -1 -17 3
-34 9 -35 12 -34 -1 -13 142 4 31 7 57 5 57 -1 0 -28 -36 -60 -80 -31 -44 -58
-80 -60 -80 -1 0 -14 4 -28 10 -23 8 -26 15 -27 62 0 29 -4 73 -7 97 l-7 43
-40 -81 c-37 -76 -41 -82 -65 -76 -14 4 -29 10 -33 14 -5 5 19 64 53 132 90
179 88 176 137 163z m1823 -140 c46 -137 37 -128 107 -108 18 5 25 1 33 -22 6
-15 7 -30 3 -34 -10 -10 -143 -53 -147 -49 -2 2 -25 69 -51 149 -26 80 -50
150 -52 156 -4 10 33 30 59 33 3 1 25 -56 48 -125z m-151 73 c32 -16 34 -27
12 -56 -15 -20 -20 -22 -38 -11 -21 14 -53 8 -53 -10 0 -5 28 -24 61 -41 85
-42 109 -69 109 -118 0 -57 -32 -91 -92 -98 -37 -4 -55 -1 -83 16 l-37 21 7
-29 c6 -28 5 -29 -42 -39 -26 -6 -69 -13 -94 -17 l-45 -7 -28 156 c-16 86 -26
162 -23 169 3 8 39 19 87 26 89 15 100 11 100 -35 0 -19 -8 -23 -55 -29 -50
-6 -55 -9 -55 -31 0 -24 2 -25 63 -22 l62 3 0 -30 c0 -28 -3 -30 -53 -39 l-54
-9 7 -36 c4 -20 8 -37 9 -38 2 -2 29 2 62 8 38 7 68 19 85 35 23 22 27 23 39
9 19 -23 65 -16 65 10 0 14 -17 29 -60 52 -33 17 -70 43 -82 58 -67 77 32 181
126 132z m-1341 -25 c10 -7 8 -33 -13 -128 -14 -65 -25 -124 -25 -131 0 -6 18
-14 40 -18 36 -6 40 -10 40 -35 0 -16 -4 -31 -9 -34 -8 -5 -151 20 -157 27 -1
1 14 74 32 162 18 88 33 161 34 163 0 6 46 1 58 -6z m235 -38 c58 -7 58 -7 55
-38 l-3 -31 -62 2 c-60 3 -63 2 -63 -21 0 -24 28 -36 86 -36 21 0 24 -5 24
-36 l0 -37 -59 7 c-55 6 -59 5 -65 -16 -13 -50 -9 -55 49 -63 55 -6 55 -7 55
-41 0 -39 4 -38 -109 -22 l-83 11 5 36 c3 20 14 96 23 169 l18 134 36 -6 c19
-3 61 -8 93 -12z m715 -36 c42 -156 74 -289 71 -292 -2 -2 -18 -7 -34 -10
l-31 -7 -24 98 -24 98 -25 -102 -25 -103 -32 0 c-30 0 -33 3 -72 97 l-40 97
-7 -102 -8 -102 -33 0 c-40 0 -39 -7 -23 173 14 171 13 167 53 167 34 0 35 -1
78 -104 l44 -104 28 114 28 114 34 0 c29 0 34 -4 42 -32z m-516 12 c21 -6 44
-21 53 -33 31 -44 10 -147 -31 -147 -18 0 -19 3 16 -75 17 -37 30 -71 30 -77
0 -5 -16 -8 -35 -6 -34 3 -38 7 -70 78 l-35 75 0 -72 0 -73 -36 0 -37 0 7 153
c4 83 10 160 12 170 6 20 66 23 126 7z"/>
<path d="M3100 6590 l-45 -5 3 -59 c1 -33 4 -62 6 -64 3 -2 30 1 60 8 71 15
99 47 75 88 -18 31 -42 39 -99 32z"/>
<path d="M3354 6070 c-506 -42 -991 -234 -1389 -550 -103 -81 -314 -292 -395
-395 -157 -198 -321 -488 -405 -719 -50 -137 -100 -338 -126 -507 -17 -113
-22 -189 -22 -354 0 -409 77 -740 258 -1110 247 -506 656 -915 1160 -1160 258
-126 475 -193 756 -236 203 -31 505 -31 708 0 170 26 367 75 506 126 234 86
525 249 715 401 483 386 823 962 919 1556 35 222 37 212 -15 122 -53 -93 -121
-166 -181 -194 -59 -28 -197 -60 -257 -60 -27 0 -76 7 -108 16 -35 10 -63 13
-68 8 -5 -5 -24 -52 -43 -104 -19 -52 -42 -112 -51 -133 l-17 -38 43 44 c70
73 183 88 318 42 77 -26 158 -32 191 -15 46 25 4 -67 -78 -167 -19 -24 -54
-56 -78 -73 -97 -67 -311 -95 -424 -56 l-53 18 -24 -23 c-13 -13 -59 -94 -102
-179 -72 -142 -102 -180 -102 -130 0 10 27 72 60 139 l60 121 -40 80 c-22 44
-40 82 -40 85 0 3 17 5 39 5 49 0 67 19 50 52 -21 39 -83 133 -94 140 -5 4
-26 10 -46 13 -36 6 -38 9 -54 70 -14 49 -16 86 -12 152 5 89 44 243 62 246 5
1 13 -15 17 -36 10 -49 39 -104 103 -198 99 -145 130 -307 85 -450 -10 -35
-18 -65 -16 -66 4 -5 118 240 151 323 l27 72 -99 98 c-107 107 -212 234 -243
293 -26 52 -47 139 -60 254 -12 99 -7 129 14 92 24 -42 95 -107 170 -157 94
-63 173 -159 200 -243 9 -30 21 -100 26 -155 4 -56 10 -104 13 -106 11 -11 76
272 77 333 0 16 -13 31 -42 50 -127 81 -330 278 -372 360 -35 71 -101 333 -83
333 4 0 26 -22 51 -48 31 -34 74 -62 138 -94 192 -94 265 -198 303 -433 l14
-90 -5 95 c-10 182 -50 372 -82 388 -9 5 -34 13 -56 16 -46 9 -233 87 -286
121 -49 31 -87 78 -144 179 -46 82 -47 83 -91 89 -56 8 -89 25 -182 91 -70 49
-94 80 -54 69 31 -8 84 14 145 62 66 51 108 67 180 69 64 1 122 -26 199 -95
31 -28 57 -46 57 -41 0 16 -127 148 -194 201 l-63 50 -69 -34 c-38 -19 -109
-46 -159 -60 -102 -30 -149 -28 -218 6 -61 31 -157 98 -157 109 0 6 14 10 30
10 40 0 75 19 139 74 53 44 108 66 173 66 l33 1 -45 38 c-33 29 -57 41 -93 45
-55 8 -200 57 -268 92 -26 13 -64 44 -85 69 -43 49 -140 213 -132 221 3 3 25
-5 48 -17 34 -18 63 -23 135 -25 166 -4 246 -62 333 -244 52 -107 67 -122 282
-276 161 -116 199 -133 67 -32 -45 35 -168 218 -195 291 -29 76 -44 169 -40
247 l3 65 28 -48 c18 -31 54 -67 102 -102 159 -118 204 -216 205 -448 l0 -89
67 -69 c36 -38 68 -68 69 -66 2 1 -8 34 -23 72 -22 62 -24 80 -20 160 5 81 10
98 47 169 23 44 48 107 54 140 l13 61 20 -40 c11 -22 33 -74 49 -115 27 -71
29 -83 29 -235 0 -170 -12 -235 -56 -310 l-21 -35 36 -69 c20 -38 51 -107 69
-155 l33 -86 -4 108 c-4 96 -2 115 17 158 35 80 69 120 136 164 61 40 106 91
120 138 3 12 10 20 15 17 14 -8 33 -231 25 -302 -13 -124 -108 -324 -181 -380
-20 -16 -45 -35 -56 -44 l-21 -15 27 -110 c14 -61 26 -124 27 -140 1 -26 2
-25 11 11 25 107 33 129 63 168 45 59 99 94 187 121 79 24 143 65 153 97 4 10
11 19 17 19 8 0 9 -38 5 -122 -9 -189 -35 -261 -138 -386 -75 -90 -137 -137
-211 -159 -33 -9 -60 -23 -63 -32 -2 -9 -11 -66 -20 -126 -8 -61 -20 -126 -25
-145 -17 -59 -12 -54 30 27 47 91 99 148 149 165 61 20 168 15 259 -11 74 -22
87 -24 125 -12 23 6 47 13 53 13 19 2 27 215 15 374 -41 531 -227 1010 -551
1419 -81 103 -292 314 -395 395 -198 157 -485 318 -719 405 -308 114 -731 172
-1052 145z m-784 -728 c0 -55 -21 -198 -36 -247 -28 -87 -136 -258 -200 -316
-16 -14 -44 -36 -62 -48 -18 -13 -31 -25 -29 -28 6 -5 185 122 303 214 76 60
84 70 132 166 65 131 104 176 182 211 52 23 78 28 154 30 75 1 99 6 130 24 20
12 39 22 42 22 12 0 -1 -31 -50 -113 -62 -104 -109 -154 -181 -190 -63 -31
-236 -87 -273 -87 -17 -1 -43 -15 -71 -40 l-44 -40 40 0 c58 0 120 -25 170
-68 69 -57 95 -72 131 -72 48 0 38 -17 -44 -72 -88 -60 -152 -82 -211 -74 -61
8 -218 62 -270 93 l-43 25 -78 -66 c-67 -56 -119 -110 -191 -201 -9 -10 13 6
49 37 94 83 152 113 220 111 67 -1 117 -21 184 -72 54 -41 117 -66 141 -57 37
14 9 -25 -49 -67 -78 -57 -160 -97 -203 -97 -30 0 -35 -6 -80 -91 -64 -123
-119 -172 -257 -232 -58 -26 -135 -54 -170 -63 -45 -11 -67 -22 -75 -37 -20
-39 -51 -210 -56 -312 l-5 -100 14 71 c29 151 62 218 148 301 46 44 90 74 151
103 59 28 103 57 137 92 l50 51 0 -29 c0 -41 -47 -229 -70 -282 -11 -24 -36
-66 -55 -92 -41 -56 -227 -225 -306 -277 -66 -45 -68 -48 -62 -92 9 -72 44
-230 62 -282 l18 -54 6 110 c3 65 14 135 25 172 32 100 113 197 224 267 62 39
134 109 144 138 3 10 10 18 16 18 28 0 -16 -271 -57 -356 -32 -65 -162 -221
-265 -317 l-81 -75 31 -78 c34 -86 142 -316 146 -311 1 1 -6 34 -17 72 -25 90
-24 166 2 251 27 87 45 123 114 224 31 46 62 106 72 140 10 33 21 60 24 60 10
0 50 -156 59 -229 8 -64 0 -144 -20 -208 -11 -30 -15 -33 -50 -33 -61 0 -82
-16 -132 -100 -43 -74 -45 -79 -29 -94 10 -9 35 -16 59 -16 22 0 43 -4 47 -10
3 -5 -10 -41 -30 -79 -19 -39 -35 -77 -35 -86 0 -8 20 -52 45 -98 24 -45 51
-101 59 -124 13 -38 13 -42 -2 -48 -10 -3 -18 -1 -21 7 -10 32 -146 289 -166
314 l-22 28 -74 -22 c-41 -12 -88 -22 -105 -22 -61 0 -210 31 -262 55 -63 29
-134 100 -185 186 -42 72 -47 95 -18 79 34 -18 118 -11 193 15 129 45 240 32
315 -38 l45 -42 -17 40 c-10 22 -32 79 -49 128 -18 48 -37 92 -43 98 -8 8 -26
7 -66 -5 -73 -21 -144 -20 -246 4 -105 25 -171 61 -223 120 -46 51 -118 171
-118 194 0 19 11 21 28 4 20 -20 119 -14 201 12 58 18 86 21 134 16 115 -12
165 -51 235 -185 19 -36 31 -55 28 -41 -4 14 -13 72 -22 130 -8 58 -17 120
-20 138 -3 18 -10 35 -17 37 -128 44 -132 47 -223 139 -96 98 -132 156 -159
261 -15 59 -33 285 -23 285 3 0 25 -20 49 -43 26 -26 64 -51 94 -61 28 -10 70
-25 95 -33 29 -10 64 -35 101 -72 44 -45 58 -68 72 -117 9 -33 18 -80 18 -105
1 -42 2 -42 10 16 5 33 20 104 33 158 l23 97 -32 20 c-53 33 -108 99 -152 185
-67 130 -77 176 -70 345 3 80 9 156 15 170 9 25 10 25 26 -15 21 -50 57 -88
122 -130 55 -36 88 -74 125 -145 20 -39 23 -59 23 -154 l-1 -109 19 49 c10 27
40 93 65 147 l47 97 -22 38 c-33 59 -52 146 -59 268 -7 128 8 210 60 338 38
94 57 108 57 44 0 -33 12 -69 45 -136 72 -146 78 -258 20 -388 l-24 -54 70 71
c39 39 75 82 80 96 5 13 9 73 9 132 0 69 6 127 16 162 23 77 93 170 169 224
69 50 119 102 130 134 9 30 25 26 25 -7z m810 -643 c31 -18 97 -74 151 -129
l95 -98 80 63 c164 132 299 174 361 113 22 -22 27 -38 31 -90 3 -35 11 -72 18
-83 8 -11 14 -41 14 -66 0 -40 -4 -51 -31 -73 -17 -14 -36 -26 -43 -26 -11 0
-51 -69 -44 -75 2 -1 46 -19 98 -40 170 -68 245 -131 245 -207 0 -43 -37 -88
-96 -119 -47 -24 -162 -55 -234 -64 -52 -7 -56 -9 -51 -29 35 -122 47 -286 25
-343 -6 -15 -20 -38 -31 -50 -28 -29 -94 -31 -147 -3 -30 15 -50 18 -88 13
-46 -5 -53 -3 -84 25 -30 27 -34 36 -34 80 0 41 -6 57 -31 88 l-31 38 -54 -45
c-155 -131 -297 -187 -371 -148 -26 14 -48 68 -48 117 0 52 34 182 65 250 14
31 22 58 18 62 -5 4 -37 17 -73 30 -251 87 -339 225 -200 311 33 20 40 29 40
57 0 23 9 42 29 63 41 41 97 41 144 -1 31 -27 83 -40 99 -25 2 3 -4 37 -15 77
-26 99 -28 260 -4 305 22 42 42 52 97 53 32 0 61 -9 100 -31z m353 -1481 c49
-92 31 -81 194 -112 l82 -15 148 50 c81 27 156 49 168 49 29 0 175 -50 175
-60 0 -5 -38 -41 -85 -82 -47 -40 -85 -76 -85 -80 0 -3 17 -17 38 -29 20 -13
55 -40 77 -61 l41 -37 252 -21 c139 -11 258 -23 264 -26 22 -9 89 -124 75
-129 -6 -2 -121 -13 -253 -26 l-242 -22 -5 -43 c-2 -23 -14 -63 -27 -89 -12
-25 -21 -47 -19 -49 2 -1 96 -60 209 -131 113 -71 222 -139 244 -153 l39 -24
-79 -79 c-59 -59 -85 -79 -105 -79 -14 0 -161 55 -325 123 l-299 122 -75 -26
c-41 -15 -112 -35 -156 -44 l-82 -18 -10 -71 c-6 -39 -21 -147 -33 -241 -15
-122 -26 -174 -37 -182 -11 -10 -69 -13 -207 -13 -170 0 -194 2 -207 18 -9 10
-28 95 -48 207 -17 105 -36 210 -41 235 l-10 45 -82 19 c-45 10 -117 29 -160
43 l-78 26 -303 -127 c-216 -89 -310 -124 -324 -118 -10 4 -54 40 -97 80 -66
62 -76 75 -64 86 8 8 111 76 229 151 118 76 220 141 226 146 8 6 2 26 -18 65
-15 31 -28 72 -28 90 0 21 -5 34 -12 34 -44 -1 -484 45 -491 50 -10 9 53 117
73 125 8 3 127 15 265 26 l250 21 40 38 c22 21 57 49 78 63 l38 26 -91 77
c-49 43 -90 81 -90 85 0 11 138 59 168 59 15 0 94 -22 175 -49 l148 -50 67 14
c37 7 89 16 115 20 l48 6 42 85 41 84 107 0 107 0 45 -82z m-1495 -1309 c-18
-108 -22 -119 -40 -101 -8 8 -8 26 0 69 6 32 14 82 17 112 7 49 9 52 23 37 15
-14 15 -24 0 -117z m2765 59 c3 -40 8 -81 12 -90 5 -14 2 -18 -13 -18 -17 0
-21 11 -31 76 -8 57 -8 80 0 90 21 25 26 15 32 -58z"/>
<path d="M2028 4397 c-40 -60 -149 -306 -148 -334 0 -4 16 21 35 57 19 35 49
78 66 96 42 43 137 84 207 90 85 7 122 14 122 22 0 4 -30 15 -67 25 -38 10
-92 29 -121 42 -66 31 -76 31 -94 2z"/>
<path d="M3262 4699 c-58 -23 -65 -138 -19 -309 l22 -85 105 4 105 3 57 62
c31 33 57 66 58 72 0 7 -41 55 -91 108 -116 123 -186 166 -237 145z"/>
<path d="M3902 4625 c-29 -13 -73 -38 -98 -56 -49 -34 -147 -117 -152 -130 -2
-4 19 -41 46 -81 l50 -74 68 -11 c38 -7 83 -15 101 -19 28 -5 33 -3 48 25 15
31 15 33 -10 62 -27 33 -33 81 -14 123 12 25 63 56 93 56 25 0 22 84 -4 110
-26 26 -64 25 -128 -5z"/>
<path d="M3565 4355 l-47 -55 60 0 c33 0 74 -3 92 -7 l33 -6 -42 61 c-23 34
-43 62 -45 62 -2 0 -25 -25 -51 -55z"/>
<path d="M3285 4253 c4 -10 16 -41 27 -70 l21 -52 20 27 c11 15 36 46 54 70
l34 42 -81 0 c-74 0 -81 -2 -75 -17z"/>
<path d="M3431 4196 c-33 -43 -65 -85 -70 -95 -7 -13 4 -44 48 -127 l58 -109
54 -7 c30 -3 77 -6 105 -7 49 -1 53 1 86 42 20 23 54 69 77 101 l41 59 -52 98
c-35 65 -59 99 -72 103 -12 3 -64 8 -117 12 l-97 7 -61 -77z m180 14 c11 0 36
-15 56 -33 31 -29 37 -41 40 -88 7 -96 -53 -156 -149 -147 -110 11 -161 140
-90 228 19 23 89 52 110 45 8 -3 22 -5 33 -5z"/>
<path d="M3131 4220 c-23 -76 -113 -101 -169 -47 l-29 28 -31 -26 c-17 -14
-34 -34 -37 -45 -16 -52 60 -117 199 -171 135 -52 134 -52 184 36 l43 76 -37
94 -37 95 -37 0 c-34 0 -38 -3 -49 -40z"/>
<path d="M3780 4235 c0 -3 16 -38 36 -77 l36 -71 19 29 c11 16 29 45 39 66
l19 36 -63 11 c-70 12 -86 13 -86 6z"/>
<path d="M3944 4118 c-27 -46 -51 -87 -53 -91 -2 -5 12 -47 29 -93 31 -80 35
-85 59 -80 14 3 49 8 76 11 85 12 201 53 234 84 56 52 34 103 -71 165 -36 21
-204 86 -222 86 -2 0 -25 -37 -52 -82z"/>
<path d="M3271 3965 c-19 -31 -32 -57 -30 -59 8 -6 131 -27 135 -23 6 6 -58
137 -66 137 -3 0 -21 -25 -39 -55z"/>
<path d="M3810 3916 c-25 -33 -47 -64 -48 -69 -3 -6 137 1 146 8 4 4 -39 114
-46 118 -4 3 -27 -23 -52 -57z"/>
<path d="M3168 3768 c-46 -106 -58 -151 -58 -214 0 -57 27 -94 71 -94 54 0
175 72 291 175 l45 39 -44 67 -44 67 -87 16 c-48 9 -99 19 -113 22 -24 5 -28
1 -61 -78z"/>
<path d="M3531 3766 c11 -20 24 -38 28 -40 4 -3 19 11 34 30 l28 34 -33 0
c-18 0 -43 3 -56 6 l-23 7 22 -37z"/>
<path d="M3655 3730 l-59 -60 31 -37 c28 -35 34 -38 82 -38 47 0 56 -4 83 -34
26 -30 30 -39 25 -78 -4 -43 -4 -44 34 -63 128 -66 168 42 107 288 l-20 82
-112 0 -112 0 -59 -60z"/>
<path d="M3505 2979 c-244 -20 -425 -135 -425 -270 0 -101 121 -203 298 -251
110 -30 326 -30 433 0 106 29 187 72 236 125 188 204 -123 431 -542 396z"/>
<path d="M5115 4404 c-11 -8 -58 -26 -105 -40 -115 -34 -114 -34 -107 -41 4
-3 47 -9 97 -14 146 -14 233 -68 299 -189 17 -30 31 -51 31 -47 0 19 -74 198
-112 269 -44 83 -62 93 -103 62z"/>
<path d="M5831 5502 l-45 -39 34 -42 c40 -49 70 -60 105 -37 35 23 32 60 -7
112 -18 24 -35 44 -38 44 -3 0 -25 -17 -49 -38z"/>
<path d="M893 4863 c19 -26 39 -49 44 -50 7 -3 53 77 53 92 0 3 -30 5 -66 5
l-66 0 35 -47z"/>
<path d="M716 2588 c14 -49 19 -51 52 -23 18 15 32 31 32 36 0 5 -21 9 -46 9
-42 0 -45 -1 -38 -22z"/>
<path d="M6107 2319 c-9 -5 -24 -23 -32 -39 -30 -59 -13 -115 45 -145 38 -19
65 -19 100 2 96 57 52 194 -62 193 -18 0 -41 -5 -51 -11z"/>
<path d="M2026 1115 c-15 -22 -15 -26 -1 -31 25 -10 47 4 43 28 -4 31 -23 33
-42 3z"/>
<path d="M1957 1000 c-18 -30 -18 -30 7 -41 14 -7 32 -9 40 -6 23 9 20 54 -3
67 -26 13 -24 14 -44 -20z"/>
<path d="M3330 700 c0 -26 3 -30 29 -30 16 0 31 6 35 15 7 18 -19 45 -45 45
-14 0 -19 -7 -19 -30z"/>
</g>
</svg>
